<?xml version="1.0" encoding="utf-8"?>
<!-- Svg Vector Icons : http://www.onlinewebfonts.com/icon -->
<!DOCTYPE svg PUBLIC "-//W3C//DTD SVG 1.1//EN" "http://www.w3.org/Graphics/SVG/1.1/DTD/svg11.dtd">
<svg version="1.1" xmlns="http://www.w3.org/2000/svg" xmlns:xlink="http://www.w3.org/1999/xlink" x="0px" y="0px" viewBox="0 0 1000 1000" enable-background="new 0 0 1000 1000" xml:space="preserve">
<metadata> Svg Vector Icons : http://www.onlinewebfonts.com/icon </metadata>
<g><path d="M436.1,734.3H95.2v85.2H10l0,85.5l511.3-0.3v-85.2h-85.2V734.3z"/><path d="M969.7,508l20.3-22.4l-20.4-251.4l-146.3,157L653,413.4l-50.5,29l36.9,18.8l-5.8,11.4l-80.1-35.9l7.7-16.6l-60-28.5l-8.3,18L460.4,395l16.8-36.3l-55.1-26.2l37.3-80.5l25.1,11.9l21.6-46.6L248,94.9l-21.6,46.6l25.2,11.9l-49.1,105.9l-20.9-9.9L139,341.2l20.9,9.9L99.4,481.7l-25.1-12l-21.6,51.6l255.7,127.8l24.1-56.9l-25.1-11.9l42.2-91l55.1,26.1l17.4-37.6l31.7,15.9l-8.9,19.1l60,28.5l8.3-17.9l74.9,37.6l-12.9,25.1l-18.1,32.1l40.9,33.8l21.5-16.3l3.6,31.9l44.6,17.7l22.2-30.5l5.5,35.8l49.7,23.2l20.5-31.8l5.3,2.7l2.4,29.3l43.1,19.8l19.1-16.6l20.9-21.6l63.5,31.9c30.9-28,49.4-62,48.7-105l-29-13l2.4-2.5L969.7,508z M215.9,384.6l-16.7,36l-37.6,81.2l-36.3-17.3l37.7-81.2l16.7-36l92.3-199.1l36.3,17.3L215.9,384.6z"/></g>
</svg>